<svg width="259" height="257" viewBox="0 0 259 257" xmlns="http://www.w3.org/2000/svg"><title>2022-resettle</title><g transform="translate(2)" fill-rule="nonzero" fill="none"><circle fill="#ffc72c" cx="128.3" cy="128.3" r="128.3"></circle><path d="M216.042 202.669c-.698.012-1.4-.186-1.967-.668-12.6-9.82-13.977-16.677-14.824-21.226-.385-2.03-.606-2.728-1.246-3.348-2.2-2.068-7.018-2.054-13.093-2.089-2.863-.02-6.145-.033-9.64-.253-.63-.059-1.188-.05-1.677-.04-2.234.038-3.063.544-3.13.686-.136.213.015.842.16 1.19.217.418.365.907.375 1.469a3.137 3.137 0 0 1-3.086 3.213l-.419.007c-6.506-.729-11.399-.994-15.098-.93-6.352.111-8.008 1.263-10.563 2.923-1.794 1.225-4.071 2.739-8.097 4.143-2.776.961-4.498 2.326-5.44 4.308-1.481 3.185-.227 7.025.064 7.722.147.419.294.837.302 1.259a3.137 3.137 0 0 1-3.086 3.213l-.14.002c-11.038-.298-14.52-7.82-17.859-15.064-1.09-2.439-2.25-4.876-3.758-7.307-1.221-1.944-2.21-2.63-2.7-2.62-1.186.02-3.1 2.37-3.91 3.93-.406.779-1.094 1.352-1.859 1.576-.834.225-1.672.17-2.448-.238l-.281-.135c-4.37-2.382-4.732-3.077-9.342-11.141l-.792-1.39c-1.73-3.06-4.198-4.491-7.41-4.435-2.303.04-4.174.845-4.174.845a3.06 3.06 0 0 1-2.091.177c-29.177-7.425-51.007-21.999-61.395-41.056-6.636-12.17-8.193-25.344-4.277-36.997 7.827-23.657 9.059-41.092 9.056-41.232a3.073 3.073 0 0 1 1.631-2.556c.97-.508 2.086-.528 3.003.018l3.877 2.109-.005-.281c-.088-1.052.313-2.112 1.14-2.758.826-.647 1.94-.877 2.923-.543C65.14 58.07 114.23 58.265 128.26 58.02l3.7-.065c.628-.01 1.258.119 1.753.461 3.53 2.186 14.377 3.611 20.389 3.998.909.054 1.825.53 2.327 1.293 1.575 2.22.361 4.698-1.211 6.621.834-.225 1.668-.45 2.503-.605 2.641-.678 5.143-1.354 7.307-1.392 4.607-.08 6.192 2.7 6.709 4.307.738 2.304.518 5.678-.164 10.604.065-.282.2-.495.265-.777 1.876-4.526 5.534-6.977 10.56-7.065 2.862-.05 5.325 1.03 7.178 3.175 3.919 4.495 4.206 12.986 3.952 18.397 6.859-3.069 8.27-10.255 8.268-10.325.255-1.409 1.425-2.412 2.818-2.577 8.296-.777 10.032-9.303 10.096-9.655.257-1.268 1.217-2.268 2.47-2.5 10.087-2.142 16.218-6.954 16.175-9.41-.189-10.81 5.415-13.786 8.765-13.845 1.676-.029 3.222.576 4.29 1.68a5.673 5.673 0 0 1 1.607 4.115c-.046 5.337 1.875 7.41 3.298 8.93.996 1.036 2.206 2.348 2.1 4.316-.047 1.265-.725 2.47-1.964 3.475-9.772 8.175-5.954 14.919-5.38 15.751.642.831.731 1.953.4 2.942-.402.99-1.227 1.707-2.27 1.935-4.66 1.065-9.544 5.292-12.453 10.68-2.637 4.89-3.315 10.097-1.775 14.283 3.964 11.095-.299 22.895-12.394 33.989-8.247 7.586-10.892 12.055-2.245 23.42 11.645 15.102 3.538 26.688 3.198 27.186-.477.71-1.237 1.145-2.072 1.3l-.42.007zm-115.173-29.796c3.142-.055 5.898 1.863 8.2 5.685 1.653 2.71 2.958 5.495 4.048 7.933 2.684 5.781 4.49 9.26 8.216 10.67-.18-2.314-.088-5.054 1.192-7.745 1.612-3.609 4.71-6.19 9.151-7.742 3.263-1.11 4.918-2.263 6.644-3.416 2.967-2.018 5.727-3.892 13.964-4.035 3.141-.055 7.055.157 11.88.565.126-.775.39-1.622.866-2.403 1.424-2.412 4.265-3.655 8.384-3.727.698-.012 1.467.045 2.236.102 3.286.223 6.288.24 9.221.26 7.473.08 13.338.048 17.313 3.77 2.2 2.068 2.73 4.446 3.19 6.755.688 3.428 1.606 7.976 9.406 14.861.919-3.386 1.025-9.286-4.476-16.422-5.5-7.135-7.558-12.997-6.396-18.424 1.031-4.933 4.314-8.852 9.33-13.503 7.01-6.442 14.585-16.474 10.697-27.218-2.13-6.001-1.342-12.896 2.174-19.487 3.111-5.741 7.92-10.319 13.047-12.585-.37-1.187-.604-2.587-.631-4.132-.067-3.86 1.23-9.57 7.76-15.441-1.78-1.935-4.492-5.328-4.61-12.137-.898.578-2.19 2.566-2.108 7.27.125 7.158-9.553 12.734-19.215 15.22-1.459 4.448-5.33 10.694-12.912 12.371-1.724 5.226-6.758 12.827-16.996 14.34-.975.157-1.958-.177-2.668-.867-.71-.69-1.008-1.737-.886-2.723.746-5.278.86-14.759-1.991-18.08-.642-.76-1.345-1.03-2.392-1.01-4.747.082-5.808 3.26-6.209 12.324-.164 2.601-.26 5.06-.785 7.035-1.047 4.02-3.541 5.117-5.352 5.36-1.812.242-3.5-.43-4.71-1.744-2.707-3.112-2.046-9.232-.61-18.946.56-4.012 1.372-9.433.924-11.11-.14.003-.35-.064-.7-.058-1.465.026-3.62.555-5.844 1.155-2.92.753-6.187 1.583-9.258 1.636a15.511 15.511 0 0 1-4.198-.488c-1.123-.332-1.978-1.3-2.207-2.419a3.127 3.127 0 0 1 1.202-3.11c1.31-1.006 2.616-2.152 3.716-3.154-5.178-.612-12.878-1.742-17.175-3.913l-3.002.052c-13.821.241-60.607.075-100.962-11.718l.166 1.471c.09 1.192-.379 2.324-1.345 2.973-.966.648-2.221.74-3.28.127l-5.005-2.721c-.856 6.966-3.197 20.838-8.902 38-3.318 9.957-1.933 21.307 3.84 31.95 9.448 17.317 29.442 30.66 56.447 37.7 1.18-.441 3.195-.968 5.569-1.01 5.444-.094 10.03 2.564 12.91 7.569l.792 1.39c2.159 3.684 3.313 5.77 4.169 6.808.214.277.356.415.639.62 1.571-1.992 4.182-4.425 7.532-4.484z" stroke="#000" stroke-width="2" fill="#000"></path><path d="M84.802 125.28L71.957 115.4a.69.69 0 0 0-.982 0L58.2 125.28c-.42.412-.14.823.492.823h3.86v14.132c0 .823.421.96 1.193.96h15.442c.842 0 2.246-.137 2.246-.96v-14.132h2.808c.702 0 .982-.411.561-.823zm-8.212 7.546c-.421.549-.842 1.166-1.334 1.715a63.392 63.392 0 0 1-1.965 2.607c-.14.206-.28.412-.421.549-.491.686-1.685.686-2.176 0a33.3 33.3 0 0 1-1.404-1.921c-.631-.892-1.333-1.784-1.965-2.676-.632-.823-1.404-1.577-1.404-2.538 0-1.578 1.544-2.881 3.37-2.881.912 0 1.754 1.166 2.315 1.646.632-.48 1.404-1.646 2.317-1.646 2.105 0 3.58 1.646 3.439 3.293.07.754-.35 1.303-.772 1.852zM61.768 75.238l-12.792-9.836a.69.69 0 0 0-.984 0l-12.791 9.836c-.422.412-.141.825.492.825h3.795V90.37c0 .825.422.825 1.265.825h15.463c.843 0 2.249 0 2.249-.825V76.063h2.811c.633 0 .984-.344.492-.825zm-8.223 7.635c-.422.55-.844 1.169-1.336 1.72a63.554 63.554 0 0 1-1.967 2.613c-.141.206-.282.413-.422.55-.492.688-1.687.688-2.179 0a33.386 33.386 0 0 1-1.406-1.926c-.632-.894-1.335-1.788-1.968-2.682-.632-.826-1.405-1.582-1.405-2.545 0-1.582 1.546-2.889 3.373-2.889.914 0 1.757 1.17 2.32 1.65.632-.48 1.405-1.65 2.32-1.65 2.108 0 3.584 1.65 3.443 3.302.07.756-.351 1.306-.773 1.857zM152.816 94.246l-12.851-9.868c-.281-.277-.703-.207-.983 0L126.2 94.246c-.421.414-.14.759.492.759h3.862v14.492c0 .828.352.69 1.194.69h15.45c.843 0 2.247.138 2.247-.69V95.005h2.81c.631 0 .982-.276.561-.76zm-8.216 7.729c-.422.552-.843 1.173-1.335 1.725a63.741 63.741 0 0 1-1.966 2.622c-.14.207-.28.414-.421.552-.492.69-1.686.69-2.177 0a33.49 33.49 0 0 1-1.405-1.932c-.632-.897-1.334-1.794-1.966-2.691-.632-.828-1.405-1.587-1.405-2.554 0-1.587 1.545-2.898 3.371-2.898.913 0 1.756 1.173 2.318 1.656.632-.483 1.404-1.656 2.317-1.656 2.107 0 3.582 1.656 3.441 3.313 0 .759-.351 1.31-.772 1.863zM202.812 131.249l-12.813-9.871c-.282-.277-.704-.208-.986 0l-12.812 9.87c-.423.415-.141.76.493.76h3.801v14.427c0 .828.423.76 1.267.76h15.488c.845 0 2.253.068 2.253-.76v-14.427h2.886c.493 0 .845-.345.423-.76zm-8.237 7.73c-.422.553-.845 1.174-1.338 1.726a63.77 63.77 0 0 1-1.97 2.623c-.142.208-.282.415-.423.553-.493.69-1.69.69-2.183 0a33.502 33.502 0 0 1-1.408-1.933c-.633-.897-1.337-1.795-1.97-2.692-.634-.828-1.409-1.588-1.409-2.554 0-1.588 1.55-2.9 3.38-2.9.915 0 1.76 1.174 2.323 1.657.633-.483 1.408-1.656 2.323-1.656 2.112 0 3.59 1.656 3.45 3.313 0 .69-.353 1.312-.775 1.864zM139.812 152.249l-12.813-9.871c-.282-.277-.704-.208-.986 0l-12.812 9.87c-.423.415-.141.76.493.76h4.012v14.427c0 .828.212.76 1.056.76h15.488c.845 0 2.464.068 2.464-.76v-14.427h2.675c.493 0 .845-.345.423-.76zm-8.237 7.73c-.422.553-.845 1.174-1.338 1.726a63.77 63.77 0 0 1-1.97 2.623c-.142.208-.282.415-.423.553-.493.69-1.69.69-2.183 0a33.502 33.502 0 0 1-1.408-1.933c-.633-.897-1.337-1.795-1.97-2.692-.634-.828-1.409-1.588-1.409-2.554 0-1.588 1.55-2.9 3.38-2.9.915 0 1.76 1.174 2.323 1.657.633-.483 1.408-1.656 2.323-1.656 2.112 0 3.59 1.656 3.45 3.313 0 .69-.353 1.312-.775 1.864z" fill="#000"></path></g></svg>