<svg width="257" height="257" viewBox="0 0 257 257" xmlns="http://www.w3.org/2000/svg"><title>2022-respond</title><g fill-rule="nonzero" fill="none"><circle fill="#ffc72c" cx="128.3" cy="128.3" r="128.3"></circle><g fill="#000"><path d="M58.406 188.98c-1.145-.265-9.077-3.087-10.84-3.881-1.674-.794-3.26-2.029-4.758-3.352l-3.173-2.823-18.243-16.23c-.881-.793-2.556-2.293-3.613-3.616-1.322-1.676-2.292-3.264-2.997-4.851-3.172-6.88-2.644-15.437 1.41-21.787l17.45-27.52 8.725-13.761 2.203-3.44c.176-.265.353-.53.529-.882.529-.794 1.057-1.676 2.203-3 2.292-2.822 5.464-5.027 9.077-6.527 1.763-.705 3.79-.97 5.465-1.234h2.996c7.58 0 26.086.176 26.263.176l32.52-.882 4.23.088c1.762 0 3.701.353 5.552.882 1.674.441 3.437 1.235 5.2 2.205 1.057.618 2.467 1.676 4.141 3.088l12.515 10.584c2.467 2.117 7.579 5.293 10.4 5.557.704.089 2.202.089 4.494.089 2.38 0 5.287 0 7.49-.089H181.084l.352-.176c.882-.53 2.556-2.029 4.936-4.41l1.41-1.412 5.816-5.821c1.41-1.323 2.908-2.47 4.495-3.352 3.349-1.94 7.05-3 10.84-3.087H221.622c1.851.088 3.702.44 5.552.97a22.09 22.09 0 0 1 9.607 5.822l5.728 5.733c1.41 1.411 2.556 2.734 3.349 3.793.97 1.323 1.763 2.91 2.556 5.028.617 1.587.97 3.351 1.233 5.468l.353 14.466c-.705 3.617-2.38 7.145-4.759 10.056-.529.617-1.41 1.588-1.85 1.94l-4.32 4.41-1.497 1.5-.793.97-1.058 1.235a8.17 8.17 0 0 0-1.234 1.235c-1.057 1.059-2.203 2.117-3.349 2.735l-.352.176c-3.35 1.764-7.227 3.793-10.488 3.793h-5.64l-12.955-15.172h16.745c1.322-.176 2.908-.44 3.172-.44 1.675-.177 3.173-1.235 4.407-2.03l.176-.088c.353-.264.705-.44.97-.705l.352-.353.793-.794 5.729-5.733c.88-.882 1.145-1.235 1.674-2.03.881-1.41 1.41-2.998 1.498-4.586v-7.674c0-1.676-.44-3.263-1.234-4.675-.44-.794-.88-1.411-1.41-1.94l-2.732-2.735-4.318-4.322-.088-.088c-.265-.265-.529-.53-.793-.706a9.536 9.536 0 0 0-4.407-1.94c-1.674-.177-5.728-.177-6.962-.177-3.173 0-5.905.089-7.05.089-1.763.264-3.261.97-4.583 1.94-.265.265-.617.53-.881.794l-4.319 4.322-2.996 3c-1.322 1.322-2.908 2.469-4.583 3.351-3.349 1.852-7.05 2.91-10.928 2.91h-16.392c-3.79 0-7.58-.97-10.928-2.822a15.66 15.66 0 0 1-2.38-1.5 5.658 5.658 0 0 1-1.145-.881l-.882-.706-3.084-2.558-12.074-9.967c-1.41-1.059-2.996-1.235-4.406-1.412-.353-.088-19.213-.264-56.139-.705h-7.843c-1.675.088-3.261.529-4.671 1.323-.705.44-1.322.882-1.939 1.5-.264.264-.529.617-.793.881l-.265.353-.617.97-26.086 41.105c-.352.617-.881 1.323-1.322 2.028-1.498 2.382-2.203 3.44-2.38 4.146-1.233 2.823-.88 6.527.882 9.174.44.617.881 1.235 1.586 1.852l21.24 19.053 4.142 3.44.264.088c.44.088 3.79 1.323 5.728 2.029l.265.088h53.054c.352 0 1.41 0 6.61-4.94l41.685-45.338 18.243-.353-30.405 32.901-11.016 11.996-5.552 5.999-2.732 3.175c-1.234 1.323-2.732 2.91-4.319 3.881-3.084 2.029-13.924 5.028-15.246 5.116H58.406zM155.701 210.061c-.88.794-1.762 1.588-2.643 2.206-1.851 1.234-12.074 5.38-13.484 5.733H5v-13.848h135.19l.353-.177c1.234-.706 5.288-2.999 5.993-3.616l.088-.089 2.732-2.822 9.166-9.88 18.242-.264L161.43 203.8l-3.525 3.793-2.204 2.47zM87.842 61.874V48.026H5V37h198.38l-12.25 11.026h-89.452v13.848z"></path><path d="M82.378 153.08V139.23H69.95v-12.437h12.427V115.77h13.748v11.025h12.426v12.437H96.126v13.849z"></path></g></g></svg>