<svg width="257" height="257" viewBox="0 0 257 257" xmlns="http://www.w3.org/2000/svg"><title>2022-serve</title><g fill-rule="nonzero" fill="none"><circle fill="#ffc72c" cx="128.3" cy="128.3" r="128.3"></circle><g fill="#000"><path d="M87.3 195.753l14.556-18.861H141.26c.557 0 .927-.092 1.298-.185h.186c.649-.185 1.205-.37 1.669-.555l.37-.185c1.577-.647 2.875-1.571 4.08-2.866.927-1.017 1.298-1.849 1.947-3.513.185-.555.464-1.202.834-1.942l3.06-7.858 26.238-62.039 1.113-4.622c.185-.833.185-1.757-.093-2.59l-.741-2.31c-.186-.648-.557-1.295-1.02-1.85-.464-.554-.835-1.11-1.206-1.664-1.02-1.48-2.04-3.143-2.781-4.9-1.484-3.421-2.41-7.304-2.503-11.002-.279-7.49 2.503-15.256 7.51-20.71 4.913-5.548 12.516-9.246 19.933-9.709.742-.092 1.484-.092 2.225-.092 6.769 0 13.722 2.496 18.914 6.75 5.934 4.807 9.828 11.926 10.663 19.415.834 7.582-.928 14.886-4.914 21.173-2.41 3.605-4.821 6.194-7.788 8.136-2.69 1.756-7.232 3.236-10.199 3.698V82.587c2.04-.648 4.45-2.682 6.026-5.27 1.947-2.959 2.782-7.12 2.318-11.465-.463-3.79-2.503-7.397-5.377-9.893-2.782-2.219-6.212-3.42-9.643-3.42h-1.112c-3.709.184-7.417 1.94-10.106 4.992-2.689 2.959-4.08 6.842-3.801 10.632.092 1.85.463 3.699 1.298 5.548.37.924.834 1.756 1.39 2.496.371.462.65.832 1.02 1.202l.371.37.927 1.11.093.092c1.854 1.664 3.06 3.883 3.616 6.38.185.924.185 1.848.185 2.865v10.356c0 1.294-.092 2.403-.556 3.513l-30.967 71.376-.556 1.387c-.371.832-.742 1.664-1.39 3.051-1.02 1.942-2.226 3.698-3.431 5.085-2.782 3.236-6.305 5.732-9.735 7.12l-.371.092c-1.762.647-3.43 1.294-5.285 1.571-1.205.185-2.503.833-4.08 1.942l-.092.093-1.947 1.849H87.3v.092z"></path><path d="M222.757 135.656c-.927 0-1.854-.092-2.782-.184-2.225-.278-4.357-.74-6.397-1.572l-4.45-1.85-13.444-5.64 5.656-13.405 16.04 6.749 1.297.555c.279.092.557.185.928.277.556.185 1.205.277 1.854.37.464.092.834.092 1.298.092.834 0 1.669-.092 2.41-.277l.835-.185 29.298-9.523-8.808 18.122-14.742 4.807c-1.112.37-3.245 1.11-5.192 1.387a25.36 25.36 0 0 1-3.801.277zM124.108 140.834l7.603-18.861a37.97 37.97 0 0 1 1.947-3.883c3.06-4.9 7.973-8.784 13.443-10.54l11.96-3.79 12.888-3.977-8.993 18.03-10.292 3.235-1.483.463c-.464.185-.835.37-1.206.554-1.576.833-3.06 2.127-3.986 3.699-.186.37-.464.74-.65 1.11l-.092.092-.649 1.664-7.046 17.567-13.444-5.363zM202.73 239.208v-54.18c0-.277.186-1.017.557-1.294 1.112-1.017 1.39-1.942 1.483-2.497.186-2.034-1.112-4.16-1.947-5.27-1.02-1.386-2.318-2.403-3.708-3.143l-6.398-2.866-12.702-5.548 5.841-13.313 18.636 8.136 1.298.647c3.43 1.664 6.49 4.253 8.808 7.397 2.503 3.328 4.08 7.211 4.728 11.372.093.462.093.924.093 1.294 0 .555 0 1.017.093 1.664.093.463.278 1.017.37 1.572.093.37.279.925.279 1.11V239.3h-17.43v-.092z"></path><g><path d="M1.3 161.251l7.307-9.542H28.585c.278 0 .463 0 .648-.093h.092c.37-.093.555-.185.832-.278l.185-.092c.833-.278 1.48-.834 2.035-1.483.463-.556.648-.926 1.018-1.76.092-.278.277-.556.37-1.02L35.337 143l13.226-31.498.555-2.41c.093-.462.093-.926 0-1.296l-.37-1.204c-.092-.371-.277-.649-.555-.927-.185-.278-.462-.556-.647-.834a10.881 10.881 0 0 1-1.387-2.501c-.74-1.76-1.203-3.706-1.295-5.559-.185-3.798 1.295-7.782 3.792-10.56 2.497-2.873 6.29-4.726 10.081-4.911h1.11c3.423 0 6.937 1.204 9.527 3.428 2.96 2.501 4.902 6.022 5.365 9.82.37 3.891-.463 7.597-2.498 10.747-1.202 1.852-2.497 3.15-3.977 4.168-1.295.927-3.607 1.668-5.18 1.853v-7.411c1.018-.37 2.22-1.39 3.053-2.687 1.017-1.482 1.387-3.613 1.202-5.836-.277-1.946-1.202-3.799-2.775-5.003-1.387-1.112-3.144-1.76-4.902-1.76h-.555c-1.664.092-3.514 1.019-4.902 2.501-1.387 1.482-2.034 3.52-1.942 5.373 0 .927.277 1.853.647 2.78.185.463.463.926.74 1.297.185.278.278.463.463.648l.185.186.462.555a6.013 6.013 0 0 1 1.85 3.243c.093.463.093.926.093 1.482v5.281c0 .648-.093 1.204-.278 1.76L40.794 149.95c-.092.277-.185.463-.277.74-.185.464-.37.834-.74 1.576-.555 1.019-1.11 1.852-1.758 2.594a12.975 12.975 0 0 1-4.902 3.613l-.185.092c-.925.37-1.757.649-2.682.834-.647.093-1.295.37-2.035 1.02l-.925.926H1.3v-.093z"></path><path d="M69.836 130.771c-.462 0-.924 0-1.387-.092a9.825 9.825 0 0 1-3.237-.834l-2.22-.926-6.752-2.872 2.867-6.763 8.047 3.427.648.278c.185.093.277.093.462.186.278.092.648.185.925.185h.647c.37 0 .833-.093 1.203-.185l.462-.093 14.799-4.817-4.44 9.171-7.399 2.409c-.555.185-1.665.556-2.59.648-.74.186-1.387.278-2.035.278zM19.983 133.365l3.793-9.542c.277-.648.647-1.297 1.017-1.945 1.572-2.502 4.07-4.447 6.844-5.374l6.012-1.945 6.475-2.038-4.532 9.171-5.18 1.668-.74.278c-.277.093-.462.185-.647.278-.833.463-1.573 1.112-2.035 1.853l-.278.556v.092l-.37.834-3.514 8.894-6.845-2.78zM59.662 183.3v-27.515c0-.093.093-.463.278-.648.555-.556.74-.927.74-1.297.092-1.02-.555-2.131-1.018-2.687-.555-.649-1.202-1.204-1.85-1.575l-3.237-1.482-6.382-2.78 2.96-6.763 9.434 4.17.648.277c1.757.834 3.237 2.131 4.44 3.799 1.202 1.667 2.034 3.705 2.404 5.744v.648c0 .278 0 .556.093.834 0 .278.092.556.185.74.092.186.185.464.185.557v27.885h-8.88v.093z"></path></g><g><path d="M82.3 71.477l4.874-6.3h13.149c.184 0 .276 0 .46-.092h.092c.276-.093.368-.093.551-.186l.092-.092c.552-.185 1.012-.556 1.38-1.02.276-.37.46-.648.643-1.204.092-.185.184-.37.276-.648l1.012-2.687 8.735-20.844.368-1.575c.092-.278.092-.556 0-.927l-.276-.834c-.092-.185-.184-.463-.367-.648-.184-.185-.276-.37-.46-.556-.368-.556-.644-1.112-.92-1.668-.552-1.204-.827-2.408-.827-3.705-.092-2.502.827-5.096 2.482-6.948 1.656-1.853 4.138-3.15 6.621-3.243h.736c2.299 0 4.505.834 6.253 2.223 1.93 1.668 3.218 3.984 3.586 6.485.276 2.502-.276 5.003-1.655 7.134-.828 1.204-1.656 2.13-2.575 2.78-.92.555-2.39 1.111-3.402 1.204v-4.91c.735-.186 1.47-.927 2.023-1.76.643-1.02.92-2.41.735-3.8-.184-1.296-.827-2.5-1.839-3.334-.92-.741-2.023-1.112-3.218-1.112h-.368a5.194 5.194 0 0 0-3.402 1.668c-.92 1.019-1.38 2.316-1.288 3.613 0 .648.184 1.297.46 1.853.092.278.276.555.46.833a.72.72 0 0 0 .368.371l.092.093.275.37c.644.556 1.012 1.297 1.196 2.131.092.278.092.648.092.926v3.428c0 .463 0 .834-.184 1.205L108.23 63.602c-.092.186-.092.278-.184.464-.092.278-.276.556-.46 1.019a13.01 13.01 0 0 1-1.103 1.667 8.66 8.66 0 0 1-3.218 2.409h-.092c-.552.185-1.104.463-1.748.556-.367.093-.827.278-1.379.648l-.644.649H82.3v.463z"></path><path d="M127.266 51.374c-.276 0-.644 0-.92-.093a7.905 7.905 0 0 1-2.115-.556l-1.471-.648-4.414-1.946 1.931-4.447L125.61 46l.46.186c.092 0 .184.092.276.092.184.093.368.093.644.093h.46c.275 0 .551 0 .827-.093l.276-.092 9.747-3.243-2.943 6.114-4.873 1.575c-.368.093-1.104.371-1.747.464-.552.185-1.012.278-1.471.278zM94.53 53.041l2.483-6.3c.184-.463.367-.833.643-1.297 1.012-1.667 2.667-2.964 4.506-3.52l3.954-1.297 4.322-1.39-3.035 6.022-3.402 1.112-.46.185c-.184.093-.275.093-.46.185a3.257 3.257 0 0 0-1.287 1.205c-.092.092-.184.278-.184.37l-.184.556-2.298 5.93-4.598-1.76zM120.645 86.115V67.957c0-.093.092-.37.184-.464.368-.37.46-.648.46-.833.091-.649-.368-1.39-.644-1.76-.368-.464-.736-.834-1.196-1.02l-2.115-.926-4.23-1.853 1.932-4.447 6.16 2.78.46.185a8.362 8.362 0 0 1 2.943 2.501 8.154 8.154 0 0 1 1.563 3.799V66.938c0 .185.092.37.092.555 0 .093.092.278.092.371V86.3h-5.701v-.185z"></path></g></g></g></svg>