<svg width="257" height="257" viewBox="0 0 257 257" xmlns="http://www.w3.org/2000/svg"><title>2022-work</title><g fill-rule="nonzero" fill="none"><circle fill="#ffc72c" cx="128.3" cy="128.3" r="128.3"></circle><g fill="#000"><path d="M89.006 222c-2.173 0-4.507-.241-6.438-.724L20.76 205.991C9.01 203.015.4 192.638.4 181.134V64.89c0-7.401 4.024-14.882 10.784-20.192 4.426-3.459 10.462-5.47 16.498-5.47 2.173 0 4.346.241 6.438.804l51.345 12.872c1.207.321 2.414.482 3.702.482 1.288 0 2.495-.16 3.702-.482l72.35-18.1c2.092-.483 4.024-.805 6.116-.805 1.529 0 3.058.16 4.668.402l60.278 11.343c11.83 2.252 20.119 12.55 20.119 25.18V187.65c0 8.125-2.978 15.124-8.53 19.709-4.749 3.942-9.98 5.872-15.613 5.872-1.53 0-3.139-.16-4.668-.482l-53.196-9.975a16.649 16.649 0 0 0-2.817-.242c-1.287 0-2.494.161-3.702.483l-72.51 18.1c-2.012.644-4.185.885-6.358.885zM27.36 49.606c-3.621 0-7.323 1.207-9.899 3.218-2.575 2.011-6.92 6.275-6.92 11.986v116.163c0 6.999 4.828 13.032 11.83 14.802l60.036 14.963V63.202l-52.15-13.193c-.885-.242-1.61-.403-2.897-.403zm65.107 13.596v147.616l71.866-17.859V45.343L92.467 63.202zm81.926 129.516l53.92 9.975c.966.161 1.932.242 2.897.242 4.346 0 8.129-1.85 10.14-3.54 1.45-1.207 4.91-4.827 4.91-11.745V71.005c0-7.32-5.312-13.596-12.716-14.963l-59.15-11.021v147.697z"></path><path d="M52.872 96.023a11.445 11.445 0 0 0-7.646-8.125 11.07 11.07 0 0 0-3.943-.483 11.277 11.277 0 0 0-9.336 6.034c-1.046 1.93-1.448 4.344-1.207 6.435.403 3.057 2.414 7 5.714 11.585a101.128 101.128 0 0 0 2.978 3.86c.724.886 1.77 2.092 2.092 2.414.161.161.161.161.242.161.16.08.322 0 .402-.08.161-.161 1.53-1.61 2.495-2.816 4.507-5.47 7.404-10.458 8.289-14.078.241-.885.322-1.528.241-2.333-.08-.885-.16-1.689-.321-2.574zm-5.634 2.494c-.241 1.367-.966 2.574-2.092 3.459-1.047.804-2.254 1.126-3.541 1.126-.564 0-1.127-.16-1.69-.322a5.41 5.41 0 0 1-.966-.482c-1.046-.644-1.851-1.61-2.253-2.735-.483-1.368-.483-2.896.16-4.183.322-.644.725-1.288 1.208-1.77a5.672 5.672 0 0 1 3.138-1.448h1.288c.885.16 1.61.402 2.334.885 1.126.724 1.931 1.93 2.253 3.217.08.483.161.805.161 1.368.08.402.08.483 0 .885zM65.426 133.832a11.445 11.445 0 0 0-7.645-8.125 11.07 11.07 0 0 0-3.944-.482 11.277 11.277 0 0 0-9.335 6.033c-1.046 1.93-1.449 4.344-1.207 6.436.402 3.057 2.414 6.998 5.714 11.584a101.127 101.127 0 0 0 2.977 3.861c.725.885 1.77 2.092 2.093 2.413.16.161.16.161.241.161.161.08.322 0 .403-.08.16-.161 1.529-1.609 2.494-2.816 4.507-5.47 7.404-10.458 8.29-14.078.241-.884.321-1.528.241-2.332 0-.885-.08-1.69-.322-2.575zm-5.553 2.494c-.241 1.368-.966 2.574-2.092 3.46-1.047.804-2.254 1.125-3.541 1.125-.564 0-1.127-.16-1.69-.321a5.41 5.41 0 0 1-.966-.483c-1.046-.644-1.851-1.609-2.253-2.735-.483-1.368-.483-2.896.16-4.183.322-.644.725-1.287 1.208-1.77a5.672 5.672 0 0 1 3.138-1.448h1.288c.885.16 1.61.402 2.334.885 1.126.724 1.931 1.93 2.253 3.218.08.482.161.804.161 1.367.08.402.08.483 0 .885zM147.996 105.516a11.445 11.445 0 0 0-7.645-8.125 11.07 11.07 0 0 0-3.943-.483 11.277 11.277 0 0 0-9.336 6.033c-1.046 1.931-1.448 4.344-1.207 6.436.402 3.057 2.414 6.999 5.714 11.584a101.128 101.128 0 0 0 2.978 3.861c.724.885 1.77 2.092 2.092 2.414.16.16.16.16.241.16.161.081.322 0 .403-.08.16-.16 1.529-1.609 2.495-2.815 4.506-5.47 7.404-10.458 8.289-14.078.241-.885.322-1.529.241-2.333 0-.885-.08-1.69-.322-2.574zm-5.553 2.413c-.241 1.368-.965 2.574-2.092 3.46-1.046.804-2.253 1.125-3.541 1.125-.563 0-1.127-.16-1.69-.321a5.41 5.41 0 0 1-.966-.483c-1.046-.644-1.85-1.609-2.253-2.735-.483-1.368-.483-2.896.16-4.183.323-.644.725-1.288 1.208-1.77a5.672 5.672 0 0 1 3.139-1.448h1.287c.885.16 1.61.402 2.334.885 1.127.724 1.932 1.93 2.253 3.218.08.482.161.804.161 1.367.08.402.08.563 0 .885zM151.779 158.448a11.445 11.445 0 0 0-7.646-8.125 11.07 11.07 0 0 0-3.943-.482 11.277 11.277 0 0 0-9.335 6.033c-1.047 1.93-1.449 4.344-1.208 6.436.403 3.057 2.415 6.999 5.714 11.584a101.128 101.128 0 0 0 2.978 3.861c.724.885 1.77 2.092 2.092 2.414.161.16.161.16.242.16.16.08.322 0 .402-.08.161-.16 1.53-1.609 2.495-2.816 4.507-5.47 7.404-10.457 8.29-14.077.24-.885.321-1.529.24-2.333 0-.885-.08-1.69-.321-2.575zm-5.553 2.414c-.242 1.367-.966 2.574-2.093 3.459-1.046.804-2.253 1.126-3.54 1.126-.564 0-1.127-.16-1.69-.322a5.41 5.41 0 0 1-.966-.482c-1.047-.644-1.851-1.61-2.254-2.735-.483-1.368-.483-2.896.161-4.184.322-.643.725-1.287 1.207-1.77a5.672 5.672 0 0 1 3.139-1.447h1.288c.885.16 1.61.402 2.334.885 1.126.724 1.931 1.93 2.253 3.217.08.483.16.805.16 1.368.081.402.081.563 0 .885zM127.716 131.66a11.445 11.445 0 0 0-7.645-8.125 11.07 11.07 0 0 0-3.944-.482 11.277 11.277 0 0 0-9.335 6.033c-1.047 1.93-1.449 4.344-1.207 6.436.402 3.057 2.414 6.998 5.713 11.584a101.128 101.128 0 0 0 2.978 3.861c.724.885 1.77 2.092 2.093 2.413.16.161.16.161.241.161.161.08.322 0 .402-.08.161-.161 1.53-1.61 2.495-2.816 4.507-5.47 7.404-10.458 8.29-14.078.24-.885.321-1.528.24-2.333 0-.965-.08-1.689-.321-2.574zm-5.553 2.414c-.241 1.367-.966 2.574-2.092 3.459-1.047.804-2.254 1.126-3.541 1.126-.564 0-1.127-.16-1.69-.322a5.41 5.41 0 0 1-.966-.482c-1.046-.644-1.851-1.61-2.254-2.736-.482-1.367-.482-2.896.161-4.183.322-.643.725-1.287 1.207-1.77a5.672 5.672 0 0 1 3.14-1.448h1.287c.885.161 1.61.403 2.334.885 1.126.724 1.931 1.931 2.253 3.218.08.483.161.805.161 1.368.08.402.08.563 0 .885zM207.872 72.694a11.445 11.445 0 0 0-7.646-8.125 11.07 11.07 0 0 0-3.943-.483 11.277 11.277 0 0 0-9.335 6.034c-1.047 1.93-1.449 4.344-1.208 6.435.403 3.057 2.415 7 5.714 11.584a101.13 101.13 0 0 0 2.978 3.862c.724.885 1.77 2.091 2.092 2.413.161.161.161.161.242.161.16.08.322 0 .402-.08.161-.161 1.53-1.61 2.495-2.816 4.507-5.47 7.404-10.458 8.29-14.078.24-.885.321-1.528.24-2.333 0-.885-.08-1.609-.321-2.574zm-5.553 2.494c-.242 1.367-.966 2.574-2.093 3.459-1.046.804-2.253 1.126-3.54 1.126-.564 0-1.127-.16-1.69-.322a5.41 5.41 0 0 1-.966-.482c-1.047-.644-1.851-1.61-2.254-2.735-.483-1.368-.483-2.896.161-4.184.322-.643.725-1.287 1.207-1.77a5.672 5.672 0 0 1 3.14-1.447h1.287c.885.16 1.61.402 2.334.885 1.126.724 1.931 1.93 2.253 3.217.08.483.16.805.16 1.368.081.402.081.563 0 .885zM231.854 101.091a11.445 11.445 0 0 0-7.645-8.125 11.07 11.07 0 0 0-3.944-.482 11.277 11.277 0 0 0-9.335 6.033c-1.046 1.93-1.449 4.344-1.207 6.436.402 3.056 2.414 6.998 5.714 11.584a101.128 101.128 0 0 0 2.977 3.86c.725.886 1.771 2.093 2.093 2.414.16.161.16.161.241.161.161.08.322 0 .403-.08.16-.161 1.529-1.61 2.495-2.816 4.506-5.47 7.403-10.458 8.289-14.078.241-.885.322-1.528.241-2.333 0-.885-.08-1.689-.322-2.574zm-5.553 2.413c-.241 1.368-.965 2.575-2.092 3.46-1.046.804-2.254 1.126-3.541 1.126-.564 0-1.127-.161-1.69-.322a5.41 5.41 0 0 1-.966-.483c-1.046-.643-1.85-1.608-2.253-2.735-.483-1.367-.483-2.896.16-4.183.323-.643.725-1.287 1.208-1.77a5.672 5.672 0 0 1 3.138-1.448h1.288c.885.161 1.61.403 2.334.885 1.127.724 1.931 1.93 2.253 3.218.08.483.161.804.161 1.368.08.402.08.563 0 .884zM210.447 142.681a11.445 11.445 0 0 0-7.645-8.125 11.07 11.07 0 0 0-3.944-.482 11.277 11.277 0 0 0-9.335 6.033c-1.046 1.93-1.449 4.344-1.207 6.436.402 3.056 2.414 6.998 5.714 11.584a101.128 101.128 0 0 0 2.977 3.861c.725.885 1.77 2.092 2.093 2.413.16.161.16.161.241.161.161.08.322 0 .403-.08.16-.161 1.529-1.61 2.494-2.816 4.507-5.47 7.404-10.458 8.29-14.078.241-.885.322-1.528.241-2.333 0-.884-.08-1.689-.322-2.574zm-5.553 2.414c-.241 1.367-.966 2.574-2.092 3.459-1.046.804-2.254 1.126-3.541 1.126-.564 0-1.127-.161-1.69-.322a5.41 5.41 0 0 1-.966-.483c-1.046-.643-1.851-1.608-2.253-2.735-.483-1.367-.483-2.896.16-4.183.322-.643.725-1.287 1.208-1.77a5.672 5.672 0 0 1 3.138-1.448h1.288c.885.161 1.61.403 2.334.885 1.127.724 1.931 1.931 2.253 3.218.08.483.161.805.161 1.368.08.402 0 .563 0 .885z"></path></g></g></svg>